<svg width="185" height="303" viewBox="0 0 185 303" fill="none" xmlns="http://www.w3.org/2000/svg">
<path d="M99.0592 320.526L78.4144 297.822L113.13 307.966L99.0592 320.526ZM81.1163 299.51L99.1256 319.313L111.396 308.357L81.1163 299.51Z" fill="#FFFCFF"/>
<path d="M101.4 321.817L73.4781 304.969L79.7653 298.024L101.4 321.817ZM74.8219 304.77L96.7845 318.023L79.7653 299.307L74.8219 304.77Z" fill="#FFFCFF"/>
<path d="M74.1524 305.506L51.7957 281.631L80.4398 298.564L74.1524 305.506ZM56.5491 285.443L74.1429 304.232L79.0911 298.769L56.5491 285.443Z" fill="#FFFCFF"/>
<path d="M36.1535 265.113L19.5427 233.904L39.6344 255.062L36.1535 265.113ZM23.287 239.1L35.985 262.959L38.649 255.275L23.287 239.1Z" fill="#FFFCFF"/>
<path d="M113.108 308.857L79.015 298.895L96.8844 277.391L113.108 308.857ZM80.5156 298.437L111.42 307.466L96.7133 278.945L80.5156 298.437Z" fill="#FFFCFF"/>
<path d="M56.0932 286.242L35.5765 264.139L39.0596 254.089L56.0932 286.242ZM36.562 263.932L52.2515 280.832L39.226 256.249L36.562 263.932Z" fill="#FFFCFF"/>
<path d="M80.8528 299.81L53.5433 283.666L64.5175 268.65L80.8528 299.81ZM54.8017 283.408L78.678 297.522L64.394 270.278L54.8017 283.408Z" fill="#FFFCFF"/>
<path d="M149.5 311.508L177.149 274.318L193.059 306.798L192.447 306.865L149.5 311.508ZM176.997 275.969L151.371 310.438L191.744 306.073L176.997 275.969Z" fill="#FFFCFF"/>
<path d="M192.349 307.311L176.458 274.87L176.954 274.729L221.675 262.013L192.349 307.311ZM177.688 275.417L192.454 305.56L219.704 263.469L177.688 275.417Z" fill="#FFFCFF"/>
<path d="M54.1131 284.349L38.072 254.068L65.092 269.327L54.1131 284.349ZM40.2138 256.269L54.2294 282.726L63.8216 269.602L40.2138 256.269Z" fill="#FFFCFF"/>
<path d="M112.18 308.947L96.0724 277.697L135.833 279.882L112.18 308.947ZM97.5302 278.64L112.346 307.378L134.095 280.65L97.5302 278.64Z" fill="#FFFCFF"/>
<path d="M151.166 311.46L150.404 311.403L111.406 308.532L135.049 279.477L151.166 311.46ZM113.12 307.793L149.709 310.486L134.878 281.055L113.12 307.793Z" fill="#FFFCFF"/>
<path d="M150.364 311.792L134.304 279.913L178.02 274.594L150.364 311.792ZM135.626 280.62L150.506 310.154L176.125 275.693L135.626 280.62Z" fill="#FFFCFF"/>
<path d="M79.6846 299.44L63.6152 268.791L97.5633 277.926L79.6846 299.44ZM65.2962 270.137L79.846 297.892L96.0391 278.41L65.2962 270.137Z" fill="#FFFCFF"/>
<path d="M39.9738 256.671L20.8843 236.568L30.4314 219.487L39.9738 256.671ZM21.9456 236.435L38.3096 253.666L30.1323 221.795L21.9456 236.435Z" fill="#FFFCFF"/>
<path d="M134.131 280.802L162.036 235.19L177.676 275.505L134.131 280.802ZM161.863 237.131L135.8 279.731L176.47 274.782L161.863 237.131Z" fill="#FFFCFF"/>
<path d="M135.581 280.732L96.0106 278.555L121.817 240.784L135.581 280.732ZM97.5871 277.779L134.347 279.801L121.561 242.69L97.5871 277.779Z" fill="#FFFCFF"/>
<path d="M38.96 256.189L29.6218 219.808L55.0249 233.127L38.96 256.189ZM30.9395 221.474L39.3256 254.149L53.7592 233.436L30.9395 221.474Z" fill="#FFFCFF"/>
<path d="M96.6515 279.151L84.6542 240.157L122.489 241.33L96.6515 279.151ZM85.8341 241.057L96.9484 277.184L120.889 242.144L85.8341 241.057Z" fill="#FFFCFF"/>
<path d="M134.855 281.273L121.11 241.382L162.793 235.607L134.855 281.273ZM122.266 242.093L135.073 279.259L161.105 236.712L122.266 242.093Z" fill="#FFFCFF"/>
<path d="M97.4422 278.788L63.741 269.719L85.4021 239.651L97.4422 278.788ZM65.1728 269.21L96.1578 277.547L85.0887 241.565L65.1728 269.21Z" fill="#FFFCFF"/>
<path d="M177.016 276.19L161.376 235.878L204.582 223.181L177.016 276.19ZM162.52 236.441L177.13 274.096L202.88 224.58L162.52 236.441Z" fill="#FFFCFF"/>
<path d="M176.227 275.832L203.765 222.88L221.283 263.021L176.227 275.832ZM203.696 224.882L177.918 274.455L220.098 262.462L203.696 224.882Z" fill="#FFFCFF"/>
<path d="M21.257 237.673L12.6691 202.385L30.816 220.566L21.257 237.673ZM14.2385 205.179L21.5751 235.331L29.7453 220.716L14.2385 205.179Z" fill="#FFFCFF"/>
<path d="M65.1514 270.353L38.5184 255.311L54.5642 232.282L65.1514 270.353ZM39.7674 255.027L63.7623 268.576L54.2223 234.28L39.7674 255.027Z" fill="#FFFCFF"/>
<path d="M21.0244 236.683L10.8432 214.783L10.8692 214.645L13.4097 201.772L21.8364 236.4L21.0244 236.683ZM11.7455 214.675L19.9607 232.344L13.4977 205.79L11.7455 214.675Z" fill="#FFFCFF"/>
<path d="M11.3324 216.76L2.57574 179.998L13.9059 203.725L11.3324 216.76ZM5.3015 187.71L11.2539 212.699L13.0039 203.837L5.3015 187.71Z" fill="#FFFCFF"/>
<path d="M64.28 270.446L53.7806 232.692L85.972 240.338L64.28 270.446ZM55.0057 233.869L64.6313 268.482L84.5188 240.878L55.0057 233.869Z" fill="#FFFCFF"/>
<path d="M5.89501 110.655L5.08295 110.363L13.2223 81.6362L14.0628 81.8248L11.1756 98.8496L5.89501 110.655ZM11.8902 89.5062L7.54296 104.856L10.3635 98.5475L11.8902 89.5062Z" fill="#FFFCFF"/>
<path d="M2.3905 130.869L1.54999 130.682L5.07346 110.405L10.3849 98.4978L11.197 98.787L2.3905 130.869ZM8.87021 104.002L5.895 110.655L3.92903 122.006L8.87021 104.002Z" fill="#FFFCFF"/>
<path d="M120.913 242.279L148.203 190.601L162.513 236.517L120.913 242.279ZM147.994 192.843L122.463 241.195L161.385 235.803L147.994 192.843Z" fill="#FFFCFF"/>
<path d="M121.525 242.971L111.121 197.121L148.882 191.163L121.525 242.971ZM112.168 197.829L121.853 240.503L147.315 192.282L112.168 197.829Z" fill="#FFFCFF"/>
<path d="M13.9038 205.726L3.45178 183.841L13.5333 165.485L13.9038 205.726ZM4.42309 183.868L13.004 201.837L12.7 168.797L4.42309 183.868Z" fill="#FFFCFF"/>
<path d="M85.7677 241.175L53.6857 233.556L78.8584 196.221L85.7677 241.175ZM55.0983 233.006L84.7206 240.04L78.3408 198.536L55.0983 233.006Z" fill="#FFFCFF"/>
<path d="M84.9985 241.84L78.0938 196.946L112.413 197.046L84.9985 241.84ZM79.103 197.811L85.4923 239.376L110.876 197.903L79.103 197.811Z" fill="#FFFCFF"/>
<path d="M122.233 242.186L84.4904 241.015L111.831 196.343L122.233 242.186ZM86.0004 240.2L121.145 241.29L111.458 198.607L86.0004 240.2Z" fill="#FFFCFF"/>
<path d="M30.7638 221.735L12.897 203.835L28.9167 180.093L30.7638 221.735ZM14.0105 203.729L29.8 219.548L28.1688 182.744L14.0105 203.729Z" fill="#FFFCFF"/>
<path d="M29.9043 221.928L28.0784 180.723L51.1951 191.625L29.9043 221.928ZM29.0069 182.114L30.657 219.356L49.8987 191.967L29.0069 182.114Z" fill="#FFFCFF"/>
<path d="M54.8965 234.031L29.6456 220.795L50.8698 190.587L54.8965 234.031ZM30.9157 220.487L53.89 232.529L50.2238 193.006L30.9157 220.487Z" fill="#FFFCFF"/>
<path d="M54.075 234.526L50.0624 191.261L79.3189 197.082L54.075 234.526ZM51.0313 192.332L54.7113 232.037L77.8801 197.675L51.0313 192.332Z" fill="#FFFCFF"/>
<path d="M13.0346 205.175L12.6762 166.145L29.1066 181.353L13.0346 205.175ZM13.5571 168.137L13.8729 202.388L27.9765 181.484L13.5571 168.137Z" fill="#FFFCFF"/>
<path d="M161.884 237.406L147.557 191.436L186.705 179.511L161.884 237.406ZM148.64 192.007L162.012 234.914L185.181 180.877L148.64 192.007Z" fill="#FFFCFF"/>
<path d="M0.880371 165.816L1.54047 130.748L2.40238 130.703L4.78847 149.962L4.76732 150.038L0.880371 165.816ZM2.29078 136.837L1.88961 158.108L3.91004 149.91L2.29078 136.837Z" fill="#FFFCFF"/>
<path d="M3.50647 183.904L0.947021 161.934L4.82668 146.192L4.37081 183.86L3.50647 183.904ZM1.82059 161.99L3.58719 177.118L3.87214 153.678L1.82059 161.99Z" fill="#FFFCFF"/>
<path d="M3.4826 185.577L3.93848 148.177L13.6044 167.148L3.4826 185.577ZM4.76002 151.692L4.38973 182.133L12.6287 167.134L4.76002 151.692Z" fill="#FFFCFF"/>
<path d="M161.191 236.832L185.955 179.074L204.311 224.16L161.191 236.832ZM185.934 181.314L162.708 235.487L203.153 223.602L185.934 181.314Z" fill="#FFFCFF"/>
<path d="M4.2069 152.315L1.52612 130.649L14.0866 112.203L4.2069 152.315ZM2.42377 130.865L4.48942 147.556L12.1016 116.654L2.42377 130.865Z" fill="#FFFCFF"/>
<path d="M0.870911 133.143L10.9096 96.5728L13.5451 114.532L0.870911 133.143ZM10.6533 100.774L3.0766 128.369L12.6429 114.325L10.6533 100.774Z" fill="#FFFCFF"/>
<path d="M3.43524 151.837L12.9327 113.27L21.4469 128.33L3.43524 151.837ZM13.2532 115.588L5.26116 148.033L20.4117 128.258L13.2532 115.588Z" fill="#FFFCFF"/>
<path d="M13.2959 168.443L3.83881 149.889L21.7224 126.552L13.2959 168.443ZM4.8551 149.982L12.9373 165.839L20.1386 130.038L4.8551 149.982Z" fill="#FFFCFF"/>
<path d="M147.401 192.385L168.57 133.445L186.511 180.472L147.401 192.385ZM168.594 135.933L148.797 191.058L185.376 179.916L168.594 135.933Z" fill="#FFFCFF"/>
<path d="M110.907 198.028L136.669 143.524L148.631 192.075L110.907 198.028ZM136.412 146.091L112.384 196.921L147.567 191.369L136.412 146.091Z" fill="#FFFCFF"/>
<path d="M28.8549 182.296L12.5337 167.189L35.0898 137.952L28.8549 182.296ZM13.6995 167.092L28.2281 180.541L33.7815 141.065L13.6995 167.092Z" fill="#FFFCFF"/>
<path d="M12.3295 168.87L20.6492 127.5L35.0329 139.443L12.3295 168.87ZM21.2096 129.089L13.9059 165.412L33.8411 139.574L21.2096 129.089Z" fill="#FFFCFF"/>
<path d="M27.8744 183.063L34.0854 138.898L54.1368 147.134L27.8744 183.063ZM34.7859 140.119L29.2111 179.774L52.7906 147.513L34.7859 140.119Z" fill="#FFFCFF"/>
<path d="M50.9362 192.457L27.886 181.585L53.9919 145.868L50.9362 192.457ZM29.1968 181.251L50.1574 191.135L52.9354 148.777L29.1968 181.251Z" fill="#FFFCFF"/>
<path d="M50.0103 193.391L53.0636 146.823L78.2362 150.762L50.0103 193.391ZM53.8637 147.822L51.0835 190.202L76.7738 151.406L53.8637 147.822Z" fill="#FFFCFF"/>
<path d="M79.0437 197.907L49.8321 192.094L77.9039 149.699L79.0437 197.907ZM51.2615 191.499L78.1555 196.85L77.1062 152.469L51.2615 191.499Z" fill="#FFFCFF"/>
<path d="M78.2031 198.934L77.0609 150.664L106.391 149.862L78.2031 198.934ZM77.9466 151.503L78.996 195.823L104.876 150.766L77.9466 151.503Z" fill="#FFFCFF"/>
<path d="M186.043 181.665L168.036 134.465L200.576 119.686L186.043 181.665ZM169.131 134.914L185.846 178.723L199.334 121.198L169.131 134.914Z" fill="#FFFCFF"/>
<path d="M112.135 197.908L77.8564 197.808L105.902 148.984L112.135 197.908ZM79.3427 196.95L111.154 197.042L105.37 151.644L79.3427 196.95Z" fill="#FFFCFF"/>
<path d="M111.403 198.997L105.154 149.962L137.286 144.236L111.403 198.997ZM106.116 150.667L111.885 195.953L135.793 145.378L106.116 150.667Z" fill="#FFFCFF"/>
<path d="M148.023 193.216L136.023 144.518L169.285 134.016L148.023 193.216ZM137.058 145.096L148.175 190.229L167.882 135.363L137.058 145.096Z" fill="#FFFCFF"/>
<path d="M71.2226 1.99348L83.4409 -8.57373L97.3688 -6.20791L71.2226 1.99348ZM83.6972 -7.65564L74.9335 -0.0736713L93.6909 -5.95801L83.6972 -7.65564Z" fill="#FFFCFF"/>
<path d="M73.1268 1.38808L72.9486 0.549338L96.8891 -6.96155L91.3428 -0.722979L73.1268 1.38808ZM94.1704 -5.20471L77.5596 0.00683212L90.9153 -1.54159L94.1704 -5.20471Z" fill="#FFFCFF"/>
<path d="M62.8317 11.6166L72.8655 0.55061L73.0272 0.531683L93.971 -1.89697L62.8317 11.6166ZM73.2883 1.36922L66.1604 9.23191L88.2844 -0.36869L73.2883 1.36922Z" fill="#FFFCFF"/>
<path d="M64.6123 10.8395L64.325 10.0282L92.2496 -2.09009L88.2559 4.16983L64.6123 10.8395ZM90.0036 -0.175552L70.5435 8.26992L87.7053 3.42935L90.0036 -0.175552Z" fill="#FFFCFF"/>
<path d="M56.8484 21.183L64.2253 10.0529L91.5849 2.33484L56.8484 21.183ZM64.7691 10.7958L59.4815 18.7733L84.3763 5.26451L64.7691 10.7958Z" fill="#FFFCFF"/>
<path d="M58.3276 20.3775L57.9571 19.5991L88.7831 2.87244L86.5655 8.86232L58.3276 20.3775ZM87.1782 4.72656L65.2581 16.6197L85.8888 8.20724L87.1782 4.72656Z" fill="#FFFCFF"/>
<path d="M53.4625 30.4153L57.8314 19.6477L57.9999 19.5791L86.0646 8.13623L86.4657 8.89661L53.4625 30.4153ZM58.4961 20.3089L55.2979 28.1868L82.2134 10.6382L58.4961 20.3089Z" fill="#FFFCFF"/>
<path d="M54.5785 29.6831L54.1438 28.9392L86.7104 7.70483L86.3802 13.1639L54.5785 29.6831ZM85.7439 9.36583L61.9294 24.8923L85.5492 12.625L85.7439 9.36583Z" fill="#FFFCFF"/>
<path d="M52.8404 39.0161L53.9753 29.0244L85.7653 12.5125L86.2282 13.2362L52.8404 39.0161ZM54.7825 29.5766L53.9304 37.0839L81.8832 15.5001L54.7825 29.5766Z" fill="#FFFCFF"/>
<path d="M30.2082 54.5626L29.6551 53.9076L54.9513 28.1017L53.7949 38.2935L53.6311 38.4037L30.2082 54.5626ZM53.8093 30.4995L33.4183 51.3013L52.9783 37.8066L53.8093 30.4995Z" fill="#FFFCFF"/>
<path d="M53.617 38.4143L53.1207 37.708L86.1808 12.1819L87.7527 16.8885L53.617 38.4143ZM85.7464 13.608L60.8419 32.8366L86.7174 16.5188L85.7464 13.608Z" fill="#FFFCFF"/>
<path d="M55.1056 46.6809L52.8902 37.8514L87.0023 16.3387L87.527 17.0212L55.1056 46.6809ZM53.8805 38.2471L55.5899 45.0651L83.3792 19.644L53.8805 38.2471Z" fill="#FFFCFF"/>
<path d="M55.6065 46.2178L55.0533 45.5555L87.2635 16.0913L90.6637 19.8634L55.6065 46.2178ZM87.2066 17.3163L62.2476 40.144L89.3909 19.7401L87.2066 17.3163Z" fill="#FFFCFF"/>
<path d="M60.2958 53.0938L54.74 45.7889L89.7661 19.4583L90.3455 20.092L60.2958 53.0938ZM55.9532 45.9573L60.3576 51.7468L86.6178 22.9045L55.9532 45.9573Z" fill="#FFFCFF"/>
<path d="M60.6141 52.7406L60.0062 52.1306L89.9324 19.2639L95.0133 21.9578L60.6141 52.7406ZM90.1174 20.3397L66.3267 46.4714L93.5152 22.1402L90.1174 20.3397Z" fill="#FFFCFF"/>
<path d="M68.3758 57.9402L59.6121 52.4824L97.0862 18.9451L68.3758 57.9402ZM61.0436 52.3579L68.1547 56.7841L91.4424 25.1528L61.0436 52.3579Z" fill="#FFFCFF"/>
<path d="M68.5822 57.6546L67.9175 57.1075L94.085 21.5645L100.633 23.0821L68.5822 57.6546ZM94.4434 22.5337L73.1409 51.467L98.988 23.5855L94.4434 22.5337Z" fill="#FFFCFF"/>
<path d="M79.1669 60.9232L67.4711 57.5835L101.98 20.3607L79.1669 60.9232ZM69.057 57.1404L78.7468 59.9068L97.6442 26.3067L69.057 57.1404Z" fill="#FFFCFF"/>
<path d="M79.3024 60.6735L78.5783 60.203L99.5625 22.8939L107.303 23.1841L79.3024 60.6735ZM100.059 23.7742L82.6051 54.8069L105.627 23.9838L100.059 23.7742Z" fill="#FFFCFF"/>
<path d="M92.3303 61.8166L78.1365 60.7881L107.972 20.8419L92.3303 61.8166ZM79.7748 60.0418L91.7509 60.9101L104.955 26.3269L79.7748 60.0418Z" fill="#FFFCFF"/>
<path d="M92.416 61.5761L91.637 61.2099L106.154 23.1839L114.754 22.2505L92.416 61.5761ZM106.773 23.9835L94.4697 56.2129L113.17 23.2894L106.773 23.9835Z" fill="#FFFCFF"/>
<path d="M91.262 61.8627L114.858 20.3171L107.37 60.4909L91.262 61.8627ZM113.063 25.223L92.8195 60.8641L106.64 59.6876L113.063 25.223Z" fill="#FFFCFF"/>
<path d="M81.0143 107.59L91.6892 60.961L107.778 59.5905L81.0143 107.59ZM92.3921 61.7656L83.2059 101.885L106.232 60.5879L92.3921 61.7656Z" fill="#FFFCFF"/>
<path d="M61.5353 105.625L78.6637 59.9612L92.8315 60.9884L61.5353 105.625ZM79.2477 60.8676L64.7334 99.5592L91.2523 61.7382L79.2477 60.8676Z" fill="#FFFCFF"/>
<path d="M34.3206 92.5295L60.1915 51.8273L68.9503 57.2802L34.3206 92.5295ZM60.4621 53.012L39.4397 86.0883L67.5803 57.4438L60.4621 53.012Z" fill="#FFFCFF"/>
<path d="M30.5454 79.4174L29.9138 78.8344L55.3478 45.1576L60.9131 52.4766L30.5454 79.4174ZM55.3478 46.5886L33.2189 75.8916L59.7402 52.3628L55.3478 46.5886Z" fill="#FFFCFF"/>
<path d="M28.2875 67.5515L27.6937 66.9296L53.605 37.1418L55.8346 46.04L55.6135 46.2118L28.2875 67.5515ZM53.1681 38.9569L31.2887 64.1126L54.8586 45.706L53.1681 38.9569Z" fill="#FFFCFF"/>
<path d="M30.0159 80.1341L27.5466 67.0351L57.6746 43.5096L30.0159 80.1341ZM28.4939 67.3903L30.5026 78.0548L53.0208 48.2364L28.4939 67.3903Z" fill="#FFFCFF"/>
<path d="M8.93903 101.137L28.2208 65.9475L30.7258 79.2372L8.93903 101.137ZM27.8197 68.4781L12.6239 96.2092L29.7927 78.9519L27.8197 68.4781Z" fill="#FFFCFF"/>
<path d="M45.8076 100.47L68.041 56.8503L79.7155 60.1828L45.8076 100.47ZM68.4874 57.874L50.0006 94.1488L78.1959 60.6459L68.4874 57.874Z" fill="#FFFCFF"/>
<path d="M35.9921 40.9684L35.4744 40.2837L59.2892 18.3564L54.7256 29.5943L35.9921 40.9684ZM57.0383 21.6001L39.2449 37.983L54.0324 29.0066L57.0383 21.6001Z" fill="#FFFCFF"/>
<path d="M41.7334 29.0731L66.5214 8.14905L58.3631 20.3598L41.7334 29.0731ZM62.4708 12.6982L48.3055 24.6576L57.8645 19.6477L62.4708 12.6982Z" fill="#FFFCFF"/>
<path d="M54.5403 15.0311L72.811 0.621704L73.3974 1.24961L64.6622 10.8218L54.5403 15.0311ZM69.2826 4.50392L59.9967 11.8287L64.242 10.0624L69.2826 4.50392Z" fill="#FFFCFF"/>
<path d="M73.1861 1.43665L71.0777 0.856293L83.308 -8.45776L83.854 -7.78837L73.1861 1.43665Z" fill="#FFFCFF"/>
<path d="M36.8848 90.1079L29.6954 79.0181L62.3425 50.0562L36.8848 90.1079ZM30.8233 79.1709L36.8754 88.5097L58.3109 54.7841L30.8233 79.1709Z" fill="#FFFCFF"/>
<path d="M11.4795 116.76L30.2058 78.2172L37.4263 89.3579L11.4795 116.76ZM30.3127 79.9718L14.7061 112.098L36.3341 89.2585L30.3127 79.9718Z" fill="#FFFCFF"/>
<path d="M48.0584 97.9565L36.2201 89.364L69.9262 55.0566L48.0584 97.9565ZM37.5401 89.2539L47.7499 96.6641L66.6043 59.6674L37.5401 89.2539Z" fill="#FFFCFF"/>
<path d="M19.5427 130.547L36.6879 88.6366L48.5406 97.2373L19.5427 130.547ZM37.0701 89.9812L22.3183 126.043L47.2702 97.3819L37.0701 89.9812Z" fill="#FFFCFF"/>
<path d="M63.3921 103.137L47.1705 97.5123L80.2426 58.2163L63.3921 103.137ZM48.6378 97.1083L62.879 102.046L77.6712 62.6139L48.6378 97.1083Z" fill="#FFFCFF"/>
<path d="M33.2853 141.691L47.6264 96.7574L63.8455 102.381L33.2853 141.691ZM48.182 97.8628L35.586 137.326L62.4232 102.802L48.182 97.8628Z" fill="#FFFCFF"/>
<path d="M82.4436 105.209L62.3638 102.939L92.9547 59.3074L82.4436 105.209ZM63.9048 102.245L81.774 104.266L91.1266 63.4193L63.9048 102.245Z" fill="#FFFCFF"/>
<path d="M52.5649 149.432L62.7937 102.119L82.8637 104.389L52.5649 149.432ZM63.4749 103.065L54.3624 145.215L81.3561 105.086L63.4749 103.065Z" fill="#FFFCFF"/>
<path d="M81.3491 105.214L107.564 58.1974L104.496 103.884L81.3491 105.214ZM106.443 61.9801L82.8686 104.261L103.684 103.066L106.443 61.9801Z" fill="#FFFCFF"/>
<path d="M76.8686 153.107L81.7171 104.329L104.85 102.998L76.8686 153.107ZM82.5005 105.146L78.139 149.06L103.328 103.95L82.5005 105.146Z" fill="#FFFCFF"/>
<path d="M103.48 106.117L106.595 59.7361L123.909 55.9927L103.48 106.117ZM107.415 60.4424L104.701 100.832L122.492 57.1808L107.415 60.4424Z" fill="#FFFCFF"/>
<path d="M103.388 104.053L123.434 54.8647L128.558 99.0653L103.388 104.053ZM122.964 58.3088L104.791 102.897L127.606 98.3746L122.964 58.3088Z" fill="#FFFCFF"/>
<path d="M105.266 152.245L103.646 103.123L128.805 98.1365L105.266 152.245ZM104.534 103.826L106.002 148.384L127.357 99.3045L104.534 103.826Z" fill="#FFFCFF"/>
<path d="M127.926 101.144L122.731 56.2888L140.484 50.3191L127.926 101.144ZM123.669 56.8835L128.235 96.2954L139.269 51.6377L123.669 56.8835Z" fill="#FFFCFF"/>
<path d="M127.475 99.3722L139.817 49.4152L153.432 90.8945L127.475 99.3722ZM139.936 52.5428L128.686 98.0691L152.342 90.3437L139.936 52.5428Z" fill="#FFFCFF"/>
<path d="M136.436 146.642L127.589 98.428L153.541 89.9529L136.436 146.642ZM128.575 99.0132L136.643 142.972L152.235 91.2868L128.575 99.0132Z" fill="#FFFCFF"/>
<path d="M153.161 92.8435L139.347 50.7469L156.718 42.8177L153.161 92.8435ZM140.406 51.2101L152.612 88.396L155.751 44.2075L140.406 51.2101Z" fill="#FFFCFF"/>
<path d="M152.406 91.3127L155.901 42.0845L177.816 79.7408L152.406 91.3127ZM156.566 44.9406L153.37 89.9254L176.591 79.3521L156.566 44.9406Z" fill="#FFFCFF"/>
<path d="M168.746 136.437L152.349 90.3909L177.754 78.8224L168.746 136.437ZM153.427 90.847L168.418 132.941L176.652 80.2713L153.427 90.847Z" fill="#FFFCFF"/>
<path d="M177.901 81.6029L155.644 43.358L171.828 33.8425L177.901 81.6029ZM156.822 43.6671L176.508 77.4897L171.137 35.2512L156.822 43.6671Z" fill="#FFFCFF"/>
<path d="M176.859 80.2561L170.878 33.2266L200.415 66.1857L176.859 80.2561ZM172.084 35.8673L177.55 78.838L199.071 65.9819L172.084 35.8673Z" fill="#FFFCFF"/>
<path d="M200.394 122.118L176.624 79.3911L200.173 65.3256L200.394 122.118ZM177.785 79.7027L199.517 118.765L199.313 66.8429L177.785 79.7027Z" fill="#FFFCFF"/>
<path d="M21.5038 64.6099L20.8107 64.1031L35.3986 40.375L36.163 40.7683L30.2889 54.4903L21.5038 64.6099ZM33.0859 45.7819L24.3008 60.0726L29.5909 53.9774L33.0859 45.7819Z" fill="#FFFCFF"/>
<path d="M14.0105 81.9727L13.2412 81.5818L20.851 64.046L29.6383 53.9264L30.3365 54.4286L14.0105 81.9727ZM21.5466 64.5601L16.7387 75.6749L27.1525 58.1048L21.5466 64.5601Z" fill="#FFFCFF"/>
<path d="M200.89 68.01L170.845 34.4834L185.112 23.8284L200.89 68.01ZM172.118 34.6103L198.596 64.1586L184.692 25.2193L172.118 34.6103Z" fill="#FFFCFF"/>
<path d="M11.4771 84.5506L30.7163 52.0903L28.4275 67.4154L11.4771 84.5506ZM29.2111 56.3268L15.7985 78.9553L27.6154 67.0102L29.2111 56.3268Z" fill="#FFFCFF"/>
<path d="M9.92664 101.128L13.2342 81.5461L29.8807 64.72L9.92664 101.128ZM14.0414 81.9596L11.6315 96.2185L26.1625 69.7051L14.0414 81.9596Z" fill="#FFFCFF"/>
<path d="M199.537 66.7898L184.004 23.2894L220.051 50.9671L199.537 66.7898ZM185.803 25.7584L199.95 65.3787L218.638 50.9684L185.803 25.7584Z" fill="#FFFCFF"/>
<path d="M12.871 115.878L10.3207 98.5228L31.7801 76.9556L12.871 115.878ZM11.2398 98.8237L13.3173 112.98L28.7409 81.2335L11.2398 98.8237Z" fill="#FFFCFF"/>
<path d="M221.01 52.7904L184.241 24.5605L195.975 13.2562L221.01 52.7904ZM185.563 24.487L217.681 49.145L195.813 14.6127L185.563 24.487Z" fill="#FFFCFF"/>
<path d="M20.991 129.283L12.5621 114.364L12.7807 114.132L38.1528 87.3357L20.991 129.283ZM13.6258 114.493L20.8675 127.307L35.605 91.282L13.6258 114.493Z" fill="#FFFCFF"/>
<path d="M34.6529 140.25L20.3144 128.345L48.9512 95.4497L34.6529 140.25ZM21.5466 128.245L34.2184 138.768L46.8571 99.1708L21.5466 128.245Z" fill="#FFFCFF"/>
<path d="M53.776 147.917L33.746 139.691L63.9571 100.83L53.776 147.917ZM35.1256 139.326L53.1514 146.729L62.3116 104.354L35.1256 139.326Z" fill="#FFFCFF"/>
<path d="M77.8897 151.581L52.7263 147.643L82.7096 103.073L77.8897 151.581ZM54.2009 147.002L77.1202 150.587L81.508 106.402L54.2009 147.002Z" fill="#FFFCFF"/>
<path d="M76.757 151.535L104.47 101.907L106.08 150.734L76.757 151.535ZM103.708 105.042L78.2506 150.632L105.187 149.895L103.708 105.042Z" fill="#FFFCFF"/>
<path d="M104.917 150.88L128.249 97.2493L137.044 145.157L104.917 150.88ZM127.912 100.192L106.353 149.749L136.037 144.459L127.912 100.192Z" fill="#FFFCFF"/>
<path d="M106.315 60.6791L122.356 18.7616L123.643 56.932L106.315 60.6791ZM121.637 23.0597L107.692 59.4992L122.755 56.2413L121.637 23.0597Z" fill="#FFFCFF"/>
<path d="M135.89 145.464L152.852 89.2358L169.14 134.966L135.89 145.464ZM152.921 92.0022L137.191 144.149L168.027 134.413L152.921 92.0022Z" fill="#FFFCFF"/>
<path d="M107.407 60.2431L106.581 60.0097L113.588 22.4138L122.689 20.3076L107.407 60.2431ZM114.336 23.1259L108.3 55.4926L121.304 21.5135L114.336 23.1259Z" fill="#FFFCFF"/>
<path d="M122.902 60.6176L121.554 20.6061L130.785 17.4287L122.902 60.6176ZM122.439 21.2139L123.496 52.5559L129.669 18.7236L122.439 21.2139Z" fill="#FFFCFF"/>
<path d="M122.644 57.2283L130.13 16.2073L140.406 51.2549L122.644 57.2283ZM130.325 19.9461L123.757 55.9451L139.347 50.7029L130.325 19.9461Z" fill="#FFFCFF"/>
<path d="M168.034 135.413L176.971 78.2397L200.56 120.641L168.034 135.413ZM177.436 80.8533L169.135 133.966L199.351 120.243L177.436 80.8533Z" fill="#FFFCFF"/>
<path d="M140.461 54.507L129.707 17.8399L138.706 13.7255L140.461 54.507ZM130.747 18.3125L139.292 47.451L137.899 15.0439L130.747 18.3125Z" fill="#FFFCFF"/>
<path d="M129.93 18.6857L123.24 -8.94226L138.943 14.5655L129.93 18.6857ZM125.224 -4.41564L130.524 17.4668L137.661 14.203L125.224 -4.41564Z" fill="#FFFCFF"/>
<path d="M138.169 14.9612L122.413 -8.62708L146.641 10.0447L138.169 14.9612ZM126.053 -4.73079L138.435 13.8073L145.095 9.94402L126.053 -4.73079Z" fill="#FFFCFF"/>
<path d="M145.86 10.534L121.388 -8.32751L153.477 4.99419L145.86 10.534ZM127.079 -5.03051L145.876 9.45579L151.727 5.20164L127.079 -5.03051Z" fill="#FFFCFF"/>
<path d="M173.808 37.3742L145.197 9.94857L152.719 4.47888L173.808 37.3742ZM146.539 10.0398L169.159 31.7196L152.484 5.71577L146.539 10.0398Z" fill="#FFFCFF"/>
<path d="M157.653 46.6432L137.701 14.2339L146.119 9.34937L157.653 46.6432ZM138.901 14.5359L154.813 40.3821L145.615 10.6394L138.901 14.5359Z" fill="#FFFCFF"/>
<path d="M152.691 5.602L120.139 -7.91162L159.139 -0.352215L152.691 5.602ZM128.328 -5.44633L152.51 4.59269L157.302 0.170397L128.328 -5.44633Z" fill="#FFFCFF"/>
<path d="M158.394 0.38125L158.137 0.332724L124.151 -6.25547L124.248 -7.1095L163.39 -5.75081L158.394 0.38125ZM129.707 -6.05748L158.05 -0.56304L161.623 -4.9487L129.707 -6.05748Z" fill="#FFFCFF"/>
<path d="M203.929 3.70304L161.849 -5.04571L165.099 -10.9871L204.162 2.87497L203.929 3.70304ZM163.166 -5.65226L197.903 1.56941L165.503 -9.9268L163.166 -5.65226Z" fill="#FFFCFF"/>
<path d="M195.742 14.3391L157.506 0.102667L162.404 -5.9071L196.11 13.5619L195.742 14.3391ZM158.935 -0.284558L191.226 11.7364L162.611 -4.79225L158.935 -0.284558Z" fill="#FFFCFF"/>
<path d="M188.299 27.0697L151.886 5.17082L158.223 -0.677856L188.299 27.0697ZM153.318 5.02403L181.506 21.9778L158.223 0.495952L153.318 5.02403Z" fill="#FFFCFF"/>
<path d="M139.473 51.6378L137.799 12.7446L156.858 43.7016L139.473 51.6378ZM138.806 16.0249L140.283 50.3204L155.611 43.3236L138.806 16.0249Z" fill="#FFFCFF"/>
<path d="M155.982 44.1612L144.962 8.52832L172.194 34.6292L155.982 44.1612ZM146.774 11.4604L156.485 42.8639L170.774 34.4645L146.774 11.4604Z" fill="#FFFCFF"/>
<path d="M171.37 35.1705L151.242 3.77649L185.675 24.4849L171.37 35.1705ZM153.961 6.41841L171.595 33.9244L184.129 24.563L153.961 6.41841Z" fill="#FFFCFF"/>
<path d="M184.91 25.1174L184.609 24.84L156.319 -1.25964L196.687 13.7692L184.91 25.1174ZM160.125 1.07779L184.896 23.9314L195.101 14.0999L160.125 1.07779Z" fill="#FFFCFF"/>
<path d="M196.008 14.4977L159.968 -6.31812L204.774 2.99813L196.008 14.4977ZM165.047 -4.38126L195.78 13.3712L203.257 3.56319L165.047 -4.38126Z" fill="#FFFCFF"/>
<path d="M204.235 3.8168L162.065 -11.1482L209.665 -7.33828L204.235 3.8168ZM168.542 -9.76549L203.796 2.74586L208.336 -6.58009L168.542 -9.76549Z" fill="#FFFCFF"/>
<path d="M87.0024 4.5311L90.8677 -1.52623L124.161 -7.10486L124.353 -6.2649L87.0024 4.5311ZM91.3902 -0.739399L88.9589 3.06808L116.943 -5.01976L91.3902 -0.739399Z" fill="#FFFCFF"/>
<path d="M85.4852 9.29714L87.6506 3.44604L124.113 -7.09302L124.393 -6.27902L85.4852 9.29714ZM88.3107 4.15329L86.9691 7.7725L116.024 -3.85764L88.3107 4.15329Z" fill="#FFFCFF"/>
<path d="M85.4877 13.6236L85.8127 8.23685L124.071 -7.07874L124.431 -6.29579L85.4877 13.6236ZM86.6416 8.83273L86.442 12.1664L115.696 -2.79619L86.6416 8.83273Z" fill="#FFFCFF"/>
<path d="M86.9975 17.3637L85.4376 12.6806L124.037 -7.06335L124.465 -6.31462L86.9975 17.3637ZM86.4918 13.1095L87.4701 16.0438L115.979 -1.97142L86.4918 13.1095Z" fill="#FFFCFF"/>
<path d="M57.537 13.7683L56.986 13.1035L71.9253 0.19519L74.0147 0.770933L57.537 13.7683ZM72.139 1.14894L72.12 1.16787L72.1414 1.15015L72.139 1.14894Z" fill="#FFFCFF"/>
<path d="M89.9751 20.3882L86.5703 16.6125L124.002 -7.04321L124.498 -6.33815L89.9751 20.3882ZM87.8998 16.795L90.0794 19.2166L116.803 -1.47283L87.8998 16.795Z" fill="#FFFCFF"/>
<path d="M94.3391 22.5761L89.2343 19.8704L123.968 -7.01953L124.531 -6.36809L94.3391 22.5761ZM90.8178 19.734L94.1918 21.5219L118.035 -1.33415L90.8178 19.734Z" fill="#FFFCFF"/>
<path d="M45.2996 27.1943L44.6989 26.5746L57.1022 13.0311L66.906 8.95483L45.2996 27.1943ZM57.5226 13.7906L49.7893 22.2741L62.0862 11.8928L57.5226 13.7906Z" fill="#FFFCFF"/>
<path d="M99.9756 23.8155L93.3894 22.2884L123.933 -6.98987L124.569 -6.40709L99.9756 23.8155ZM95.1392 21.8085L99.6457 22.8535L119.493 -1.5357L95.1392 21.8085Z" fill="#FFFCFF"/>
<path d="M33.3543 43.4078L44.8199 26.4834L60.8705 18.0734L33.3543 43.4078ZM45.3186 27.1965L38.1766 37.7923L55.4569 21.8833L45.3186 27.1965Z" fill="#FFFCFF"/>
<path d="M106.705 24.0251L98.9309 23.7325L123.9 -6.95081L124.607 -6.46022L106.705 24.0251ZM100.693 22.9353L106.22 23.1437L120.993 -2.01173L100.693 22.9353Z" fill="#FFFCFF"/>
<path d="M105.657 24.1056L123.862 -6.89746L124.64 -6.53741L114.279 23.1686L105.657 24.1056ZM122.373 -2.6586L107.27 23.0631L113.642 22.3702L122.373 -2.6586Z" fill="#FFFCFF"/>
<path d="M28.6672 56.1467L35.4224 40.3039L35.5411 40.2329L57.0952 27.1479L28.6672 56.1467ZM36.111 40.8974L31.26 52.2704L51.6675 31.4531L36.111 40.8974Z" fill="#FFFCFF"/>
<path d="M113.296 23.3663L124.935 -10.0062L122.404 21.2589L113.296 23.3663ZM123.529 -3.35059L114.625 22.1734L121.592 20.5611L123.529 -3.35059Z" fill="#FFFCFF"/>
<path d="M27.3733 68.6129L29.5625 53.9597L29.7193 53.8542L55.9556 35.7523L27.3733 68.6129ZM30.365 54.4573L28.6672 65.8123L50.8151 40.3466L30.365 54.4573Z" fill="#FFFCFF"/>
<path d="M121.513 21.5326L124.018 -9.396L130.742 18.3564L121.513 21.5326ZM124.446 -3.96197L122.48 20.2875L129.717 17.7972L124.446 -3.96197Z" fill="#FFFCFF"/>
</svg>
