<svg width="99" height="65" viewBox="0 0 99 65" fill="none" xmlns="http://www.w3.org/2000/svg">
<path d="M13.5764 53.0614C10.6296 53.0614 8.16691 52.419 6.18833 51.1342C4.25185 49.8494 2.77843 48.0722 1.76809 45.8024C0.757755 43.5326 0.16839 40.8988 0 37.901L6.31462 36.1665C6.44092 38.0081 6.71455 39.7853 7.13552 41.4984C7.5986 43.2114 8.3353 44.6247 9.34564 45.7381C10.356 46.8088 11.7662 47.3441 13.5764 47.3441C15.4287 47.3441 16.8179 46.8302 17.7441 45.8024C18.7123 44.7317 19.1965 43.2114 19.1965 41.2414C19.1965 38.886 18.6702 37.0016 17.6178 35.5884C16.5654 34.1323 15.2393 32.6762 13.6396 31.2201L5.0517 23.5115C3.3678 22.0126 2.12592 20.3852 1.32607 18.6293C0.526219 16.8306 0.126292 14.6251 0.126292 12.0127C0.126292 8.20118 1.19978 5.24618 3.34675 3.14771C5.49372 1.04924 8.4195 0 12.1241 0C14.1448 0 15.9129 0.27837 17.4284 0.835109C18.986 1.34902 20.2699 2.16271 21.2803 3.27619C22.3327 4.38967 23.1536 5.80292 23.743 7.51596C24.3744 9.18617 24.7954 11.1562 25.0059 13.4259L18.9439 15.0962C18.8176 13.3831 18.565 11.82 18.1861 10.4067C17.8072 8.95063 17.1337 7.79433 16.1654 6.93781C15.2393 6.03847 13.8922 5.58879 12.1241 5.58879C10.356 5.58879 8.96677 6.08129 7.95643 7.06629C6.98818 8.00846 6.50406 9.42172 6.50406 11.3061C6.50406 12.8906 6.75665 14.1968 7.26182 15.2246C7.80908 16.2525 8.67208 17.3017 9.85081 18.3723L18.5018 26.081C20.4383 27.7941 22.1433 29.8497 23.6167 32.248C25.0901 34.6034 25.8268 37.4085 25.8268 40.6633C25.8268 43.2328 25.3006 45.4598 24.2482 47.3441C23.1957 49.1856 21.7434 50.5989 19.8911 51.5839C18.0809 52.5689 15.976 53.0614 13.5764 53.0614ZM36.982 52.4832V5.84575H28.331V0.449675H52.516V5.84575H44.1175V52.4832H36.982ZM57.8256 52.4832V0.449675H64.8349V52.4832H57.8256ZM70.3316 52.4832L81.1928 0.449675H88.0757L99 52.4832H92.2434L89.9069 39.3785H79.4878L77.0251 52.4832H70.3316ZM80.435 34.1751H88.9597L84.6658 10.7279L80.435 34.1751Z" fill="#FFFCFF"/>
<path d="M73.92 64.913V57.108H76.296V57.9174H74.7751V60.4998H76.0085V61.2707H74.7751V64.1325H76.3111V64.913H73.92ZM78.4467 64.9997C78.0936 64.9997 77.7985 64.9034 77.5614 64.7107C77.3293 64.5179 77.1528 64.2513 77.0317 63.9109C76.9106 63.5704 76.84 63.1754 76.8198 62.7257L77.5765 62.4655C77.5916 62.7417 77.6244 63.0083 77.6749 63.2653C77.7304 63.5222 77.8187 63.7342 77.9397 63.9012C78.0608 64.0618 78.2298 64.1421 78.4467 64.1421C78.6687 64.1421 78.8351 64.0651 78.9461 63.9109C79.0621 63.7503 79.1202 63.5222 79.1202 63.2267C79.1202 62.8734 79.0571 62.5908 78.931 62.3788C78.8049 62.1604 78.646 61.942 78.4543 61.7235L77.4252 60.5672C77.2234 60.3424 77.0746 60.0983 76.9787 59.8349C76.8829 59.5651 76.835 59.2343 76.835 58.8424C76.835 58.2707 76.9636 57.8275 77.2209 57.5127C77.4781 57.1979 77.8287 57.0405 78.2727 57.0405C78.5148 57.0405 78.7267 57.0823 78.9083 57.1658C79.0949 57.2429 79.2488 57.3649 79.3699 57.532C79.496 57.699 79.5943 57.911 79.665 58.1679C79.7406 58.4185 79.7911 58.714 79.8163 59.0544L79.0899 59.305C79.0748 59.048 79.0445 58.8135 78.9991 58.6015C78.9537 58.3831 78.873 58.2097 78.7569 58.0812C78.646 57.9463 78.4845 57.8788 78.2727 57.8788C78.0608 57.8788 77.8943 57.9527 77.7733 58.1005C77.6572 58.2418 77.5992 58.4538 77.5992 58.7364C77.5992 58.9741 77.6295 59.17 77.69 59.3242C77.7556 59.4784 77.859 59.6358 78.0003 59.7964L79.0369 60.9527C79.269 61.2096 79.4733 61.518 79.6498 61.8777C79.8264 62.231 79.9147 62.6518 79.9147 63.14C79.9147 63.5255 79.8516 63.8595 79.7255 64.1421C79.5994 64.4184 79.4253 64.6304 79.2034 64.7781C78.9865 64.9259 78.7342 64.9997 78.4467 64.9997ZM81.2514 64.913V57.9174H80.2147V57.108H83.1128V57.9174H82.1064V64.913H81.2514ZM83.1987 64.913V63.7663H84.0084V64.913H83.1987ZM84.5644 64.913V64.1807L86.1232 61.0876C86.2392 60.8563 86.3451 60.6411 86.441 60.442C86.5418 60.2428 86.6226 60.0341 86.6831 59.8157C86.7487 59.5908 86.7815 59.3339 86.7815 59.0448C86.7815 58.685 86.7361 58.4024 86.6453 58.1968C86.5545 57.9913 86.3956 57.8885 86.1686 57.8885C85.9769 57.8885 85.8281 57.9559 85.7221 58.0908C85.6162 58.2257 85.543 58.4024 85.5027 58.6208C85.4623 58.8392 85.4421 59.0737 85.4421 59.3242V59.5844H84.6325V59.3146C84.6325 58.8456 84.6804 58.4442 84.7763 58.1101C84.8771 57.7696 85.036 57.5063 85.253 57.32C85.4749 57.1337 85.7675 57.0405 86.1307 57.0405C86.6251 57.0405 86.9934 57.2204 87.2355 57.5801C87.4776 57.9335 87.5987 58.4249 87.5987 59.0544C87.5987 59.3885 87.5659 59.6807 87.5003 59.9313C87.4398 60.1818 87.3591 60.4163 87.2582 60.6347C87.1573 60.8531 87.0463 61.0779 86.9252 61.3092L85.5178 64.0458H87.4549V64.913H84.5644ZM89.8274 64.9997C89.4794 64.9997 89.1918 64.9002 88.9648 64.701C88.7429 64.5019 88.5764 64.2289 88.4654 63.882C88.3595 63.5351 88.3065 63.14 88.3065 62.6968V59.3339C88.3065 58.8778 88.3595 58.4795 88.4654 58.139C88.5713 57.7921 88.7353 57.5223 88.9573 57.3296C89.1843 57.1369 89.4743 57.0405 89.8274 57.0405C90.1806 57.0405 90.4681 57.1369 90.6901 57.3296C90.912 57.5223 91.076 57.7921 91.1819 58.139C91.2878 58.4795 91.3408 58.8778 91.3408 59.3339V62.6968C91.3408 63.1464 91.2854 63.5447 91.1743 63.8916C91.0684 64.2385 90.9044 64.5115 90.6825 64.7107C90.4606 64.9034 90.1755 64.9997 89.8274 64.9997ZM89.8274 64.1518C90.0191 64.1518 90.1629 64.0811 90.2588 63.9398C90.3596 63.7985 90.4277 63.6186 90.4631 63.4002C90.5034 63.1754 90.5236 62.9441 90.5236 62.7064V59.3242C90.5236 59.0737 90.506 58.8392 90.4706 58.6208C90.4353 58.396 90.3672 58.2161 90.2663 58.0812C90.1705 57.9463 90.0242 57.8788 89.8274 57.8788C89.6307 57.8788 89.4819 57.9463 89.381 58.0812C89.2801 58.2161 89.212 58.396 89.1767 58.6208C89.1414 58.8392 89.1237 59.0737 89.1237 59.3242V62.7064C89.1237 62.9441 89.1414 63.1754 89.1767 63.4002C89.217 63.6186 89.2877 63.7985 89.3886 63.9398C89.4945 64.0811 89.6408 64.1518 89.8274 64.1518ZM93.7365 64.9997C93.3884 64.9997 93.1009 64.9002 92.8739 64.701C92.6519 64.5019 92.4855 64.2289 92.3745 63.882C92.2685 63.5351 92.2155 63.14 92.2155 62.6968V59.3339C92.2155 58.8778 92.2685 58.4795 92.3745 58.139C92.4804 57.7921 92.6444 57.5223 92.8663 57.3296C93.0933 57.1369 93.3833 57.0405 93.7365 57.0405C94.0896 57.0405 94.3772 57.1369 94.5991 57.3296C94.821 57.5223 94.985 57.7921 95.091 58.139C95.1969 58.4795 95.2499 58.8778 95.2499 59.3339V62.6968C95.2499 63.1464 95.1944 63.5447 95.0834 63.8916C94.9775 64.2385 94.8135 64.5115 94.5915 64.7107C94.3696 64.9034 94.0846 64.9997 93.7365 64.9997ZM93.7365 64.1518C93.9282 64.1518 94.0719 64.0811 94.1678 63.9398C94.2687 63.7985 94.3368 63.6186 94.3721 63.4002C94.4124 63.1754 94.4326 62.9441 94.4326 62.7064V59.3242C94.4326 59.0737 94.415 58.8392 94.3797 58.6208C94.3443 58.396 94.2762 58.2161 94.1754 58.0812C94.0795 57.9463 93.9332 57.8788 93.7365 57.8788C93.5397 57.8788 93.3909 57.9463 93.29 58.0812C93.1892 58.2161 93.1211 58.396 93.0857 58.6208C93.0504 58.8392 93.0328 59.0737 93.0328 59.3242V62.7064C93.0328 62.9441 93.0504 63.1754 93.0857 63.4002C93.1261 63.6186 93.1967 63.7985 93.2976 63.9398C93.4035 64.0811 93.5498 64.1518 93.7365 64.1518ZM97.4866 64.9997C97.1537 64.9997 96.8763 64.9194 96.6543 64.7588C96.4323 64.5982 96.2659 64.367 96.1549 64.0651C96.0439 63.7631 95.9884 63.4066 95.9884 62.9955V62.7353H96.7905C96.7905 62.761 96.7905 62.7899 96.7905 62.822C96.7905 62.8477 96.7905 62.8766 96.7905 62.9088C96.7955 63.14 96.8157 63.3488 96.851 63.5351C96.8914 63.7214 96.9595 63.8691 97.0553 63.9783C97.1563 64.0875 97.3 64.1421 97.4866 64.1421C97.6834 64.1421 97.8322 64.0843 97.9331 63.9687C98.034 63.8466 98.1021 63.6764 98.1374 63.458C98.1727 63.2396 98.1903 62.9891 98.1903 62.7064C98.1903 62.2953 98.1298 61.9612 98.0087 61.7043C97.8927 61.4409 97.6859 61.2964 97.3883 61.2707C97.3731 61.2642 97.353 61.261 97.3277 61.261C97.3076 61.261 97.2899 61.261 97.2748 61.261V60.23C97.2899 60.23 97.3076 60.23 97.3277 60.23C97.3479 60.23 97.3656 60.23 97.3807 60.23C97.6682 60.2171 97.8751 60.1208 98.0012 59.9409C98.1273 59.761 98.1903 59.4623 98.1903 59.0448C98.1903 58.6915 98.1424 58.4088 98.0466 58.1968C97.9558 57.9848 97.7717 57.8788 97.4942 57.8788C97.2168 57.8788 97.0326 57.9977 96.9418 58.2354C96.851 58.4666 96.8006 58.7653 96.7905 59.1315C96.7905 59.1572 96.7905 59.1861 96.7905 59.2182C96.7905 59.2439 96.7905 59.2696 96.7905 59.2953H95.9884V59.0351C95.9884 58.6176 96.0439 58.2611 96.1549 57.9656C96.2659 57.6701 96.4323 57.442 96.6543 57.2814C96.8813 57.1208 97.1613 57.0405 97.4942 57.0405C97.8322 57.0405 98.1122 57.1208 98.3341 57.2814C98.5561 57.442 98.7226 57.6733 98.8335 57.9752C98.9445 58.2707 99 58.6272 99 59.0448C99 59.5137 98.9193 59.8895 98.7579 60.1722C98.6015 60.4548 98.3897 60.6475 98.1222 60.7503C98.3089 60.821 98.4653 60.943 98.5914 61.1165C98.7226 61.2899 98.8235 61.5116 98.8941 61.7814C98.9647 62.0447 99 62.3531 99 62.7064C99 63.1689 98.9496 63.5736 98.8487 63.9205C98.7478 64.261 98.5864 64.5276 98.3644 64.7203C98.1424 64.9066 97.8498 64.9997 97.4866 64.9997Z" fill="#FFFCFF"/>
</svg>
