<svg width="93" height="50" viewBox="0 0 93 50" fill="none" xmlns="http://www.w3.org/2000/svg">
<path d="M12.7536 50C9.9854 50 7.67195 49.3947 5.81328 48.184C3.99416 46.9734 2.61004 45.2986 1.66094 43.1598C0.71183 41.021 0.158184 38.5391 0 35.7143L5.93192 34.0799C6.05056 35.8152 6.30761 37.4899 6.70307 39.1041C7.13807 40.7183 7.83013 42.05 8.77924 43.0993C9.72835 44.1082 11.0531 44.6126 12.7536 44.6126C14.4937 44.6126 15.7987 44.1283 16.6687 43.1598C17.5783 42.1509 18.033 40.7183 18.033 38.862C18.033 36.6425 17.5387 34.8668 16.5501 33.5351C15.5614 32.163 14.3157 30.791 12.8129 29.4189L4.74553 22.155C3.16369 20.7425 1.99708 19.209 1.2457 17.5545C0.494327 15.8596 0.118638 13.7813 0.118638 11.3196C0.118638 7.72801 1.12706 4.9435 3.14392 2.9661C5.16077 0.988703 7.90923 0 11.3893 0C13.2875 0 14.9484 0.26231 16.3721 0.786927C17.8353 1.27119 19.0415 2.03794 19.9906 3.08717C20.9792 4.1364 21.7504 5.46812 22.304 7.08233C22.8972 8.65618 23.2927 10.5125 23.4904 12.6513L17.7958 14.2252C17.6771 12.611 17.4398 11.138 17.0839 9.8063C16.728 8.43422 16.0953 7.34463 15.1857 6.53753C14.3157 5.69007 13.0502 5.26635 11.3893 5.26635C9.72835 5.26635 8.42332 5.73043 7.47422 6.6586C6.56466 7.54641 6.10988 8.87813 6.10988 10.6538C6.10988 12.1469 6.34715 13.3777 6.82171 14.3462C7.33581 15.3148 8.1465 16.3035 9.25379 17.3124L17.3805 24.5763C19.1996 26.1905 20.8013 28.1275 22.1854 30.3874C23.5695 32.6069 24.2615 35.2502 24.2615 38.3172C24.2615 40.7385 23.7672 42.837 22.7786 44.6126C21.7899 46.3479 20.4256 47.6796 18.6855 48.6077C16.9851 49.5359 15.0078 50 12.7536 50ZM34.7407 49.4552V5.50848H26.6139V0.423731H49.3332V5.50848H41.4437V49.4552H34.7407ZM54.321 49.4552V0.423731H60.9055V49.4552H54.321ZM66.0691 49.4552L76.272 0.423731H82.7378L93 49.4552H86.6528L84.458 37.1065H74.6704L72.3569 49.4552H66.0691ZM75.5602 32.2034H83.5682L79.5345 10.109L75.5602 32.2034Z" fill="#FFFCFF"/>
</svg>
